REM DIRINDEX 1\2,1\3,1\4,1\5
REM DIRNAME cjc004,folder01,folder02,folder03,folder04
TITLE ""
FILE "1Q_j_2283-2296.mp3" MP3
  TRACK 01 AUDIO
    TITLE "3:cjc004_0548"
    INDEX 01 00:00:00
  TRACK 02 AUDIO
    TITLE "0:"
    INDEX 01 00:01:03
  TRACK 03 AUDIO
    TITLE "4:cjc004_0549"
    INDEX 01 00:01:26
  TRACK 04 AUDIO
    TITLE "0:"
    INDEX 01 00:03:15
  TRACK 05 AUDIO
    TITLE "5:cjc004_0550"
    INDEX 01 00:03:39
  TRACK 06 AUDIO
    TITLE "0:"
    INDEX 01 00:08:66
  TRACK 07 AUDIO
    TITLE "3:cjc004_0551"
    INDEX 01 00:09:47
  TRACK 08 AUDIO
    TITLE "0:"
    INDEX 01 00:10:70
  TRACK 09 AUDIO
    TITLE "4:cjc004_0552"
    INDEX 01 00:11:21
  TRACK 10 AUDIO
    TITLE "0:"
    INDEX 01 00:13:24
  TRACK 11 AUDIO
    TITLE "5:cjc004_0553"
    INDEX 01 00:13:53
  TRACK 12 AUDIO
    TITLE "0:"
    INDEX 01 00:19:69
  TRACK 13 AUDIO
    TITLE "3:cjc004_0554"
    INDEX 01 00:20:55
  TRACK 14 AUDIO
    TITLE "0:"
    INDEX 01 00:22:03
  TRACK 15 AUDIO
    TITLE "4:cjc004_0555"
    INDEX 01 00:22:29
  TRACK 16 AUDIO
    TITLE "0:"
    INDEX 01 00:23:63
  TRACK 17 AUDIO
    TITLE "5:cjc004_0556"
    INDEX 01 00:24:14
  TRACK 18 AUDIO
    TITLE "0:"
    INDEX 01 00:28:43
  TRACK 19 AUDIO
    TITLE "3:cjc004_0557"
    INDEX 01 00:29:21
  TRACK 20 AUDIO
    TITLE "0:"
    INDEX 01 00:30:34
  TRACK 21 AUDIO
    TITLE "4:cjc004_0558"
    INDEX 01 00:30:63
  TRACK 22 AUDIO
    TITLE "0:"
    INDEX 01 00:31:61
  TRACK 23 AUDIO
    TITLE "5:cjc004_0559"
    INDEX 01 00:32:09
  TRACK 24 AUDIO
    TITLE "0:"
    INDEX 01 00:37:12
  TRACK 25 AUDIO
    TITLE "3:cjc004_0560"
    INDEX 01 00:37:71
  TRACK 26 AUDIO
    TITLE "0:"
    INDEX 01 00:39:09
  TRACK 27 AUDIO
    TITLE "4:cjc004_0561"
    INDEX 01 00:39:43
  TRACK 28 AUDIO
    TITLE "0:"
    INDEX 01 00:40:58
  TRACK 29 AUDIO
    TITLE "5:cjc004_0562"
    INDEX 01 00:41:10
  TRACK 30 AUDIO
    TITLE "0:"
    INDEX 01 00:44:54
  TRACK 31 AUDIO
    TITLE "3:cjc004_0563"
    INDEX 01 00:45:35
  TRACK 32 AUDIO
    TITLE "0:"
    INDEX 01 00:46:54
  TRACK 33 AUDIO
    TITLE "4:cjc004_0564"
    INDEX 01 00:47:11
  TRACK 34 AUDIO
    TITLE "0:"
    INDEX 01 00:48:42
  TRACK 35 AUDIO
    TITLE "5:cjc004_0565"
    INDEX 01 00:48:61
  TRACK 36 AUDIO
    TITLE "0:"
    INDEX 01 00:52:57
  TRACK 37 AUDIO
    TITLE "3:cjc004_0566"
    INDEX 01 00:53:35
  TRACK 38 AUDIO
    TITLE "0:"
    INDEX 01 00:54:54
  TRACK 39 AUDIO
    TITLE "4:cjc004_0567"
    INDEX 01 00:55:06
  TRACK 40 AUDIO
    TITLE "0:"
    INDEX 01 00:56:39
  TRACK 41 AUDIO
    TITLE "5:cjc004_0568"
    INDEX 01 00:56:63
  TRACK 42 AUDIO
    TITLE "0:"
    INDEX 01 01:00:37
  TRACK 43 AUDIO
    TITLE "3:cjc004_0569"
    INDEX 01 01:01:19
  TRACK 44 AUDIO
    TITLE "0:"
    INDEX 01 01:02:24
  TRACK 45 AUDIO
    TITLE "4:cjc004_0570"
    INDEX 01 01:02:55
  TRACK 46 AUDIO
    TITLE "0:"
    INDEX 01 01:04:00
  TRACK 47 AUDIO
    TITLE "5:cjc004_0571"
    INDEX 01 01:04:23
  TRACK 48 AUDIO
    TITLE "0:"
    INDEX 01 01:12:19
  TRACK 49 AUDIO
    TITLE "3:cjc004_0572"
    INDEX 01 01:12:73
  TRACK 50 AUDIO
    TITLE "0:"
    INDEX 01 01:14:19
  TRACK 51 AUDIO
    TITLE "4:cjc004_0573"
    INDEX 01 01:14:49
  TRACK 52 AUDIO
    TITLE "0:"
    INDEX 01 01:15:64
  TRACK 53 AUDIO
    TITLE "5:cjc004_0574"
    INDEX 01 01:16:12
  TRACK 54 AUDIO
    TITLE "0:"
    INDEX 01 01:19:36
  TRACK 55 AUDIO
    TITLE "3:cjc004_0575"
    INDEX 01 01:20:20
  TRACK 56 AUDIO
    TITLE "0:"
    INDEX 01 01:21:39
  TRACK 57 AUDIO
    TITLE "4:cjc004_0576"
    INDEX 01 01:21:69
  TRACK 58 AUDIO
    TITLE "0:"
    INDEX 01 01:23:28
  TRACK 59 AUDIO
    TITLE "5:cjc004_0577"
    INDEX 01 01:23:58
  TRACK 60 AUDIO
    TITLE "0:"
    INDEX 01 01:28:37
  TRACK 61 AUDIO
    TITLE "3:cjc004_0578"
    INDEX 01 01:29:15
  TRACK 62 AUDIO
    TITLE "0:"
    INDEX 01 01:30:22
  TRACK 63 AUDIO
    TITLE "4:cjc004_0579"
    INDEX 01 01:30:58
  TRACK 64 AUDIO
    TITLE "0:"
    INDEX 01 01:32:06
  TRACK 65 AUDIO
    TITLE "5:cjc004_0580"
    INDEX 01 01:32:35
  TRACK 66 AUDIO
    TITLE "0:"
    INDEX 01 01:36:60
  TRACK 67 AUDIO
    TITLE "3:cjc004_0581"
    INDEX 01 01:37:38
  TRACK 68 AUDIO
    TITLE "0:"
    INDEX 01 01:38:63
  TRACK 69 AUDIO
    TITLE "4:cjc004_0582"
    INDEX 01 01:39:19
  TRACK 70 AUDIO
    TITLE "0:"
    INDEX 01 01:40:64
  TRACK 71 AUDIO
    TITLE "5:cjc004_0583"
    INDEX 01 01:41:16
  TRACK 72 AUDIO
    TITLE "0:"
    INDEX 01 01:45:67
  TRACK 73 AUDIO
    TITLE "3:cjc004_0584"
    INDEX 01 01:46:43
  TRACK 74 AUDIO
    TITLE "0:"
    INDEX 01 01:47:64
  TRACK 75 AUDIO
    TITLE "4:cjc004_0585"
    INDEX 01 01:48:14
  TRACK 76 AUDIO
    TITLE "0:"
    INDEX 01 01:49:18
  TRACK 77 AUDIO
    TITLE "5:cjc004_0586"
    INDEX 01 01:49:47
  TRACK 78 AUDIO
    TITLE "0:"
    INDEX 01 01:53:33
  TRACK 79 AUDIO
    TITLE "3:cjc004_0587"
    INDEX 01 01:54:15
  TRACK 80 AUDIO
    TITLE "0:"
    INDEX 01 01:55:42
  TRACK 81 AUDIO
    TITLE "4:cjc004_0588"
    INDEX 01 01:55:67
  TRACK 82 AUDIO
    TITLE "0:"
    INDEX 01 01:57:21
  TRACK 83 AUDIO
    TITLE "5:cjc004_0589"
    INDEX 01 01:57:43
  TRACK 84 AUDIO
    TITLE "0:"
    INDEX 01 02:03:67
